#!OML:ASF H:\Pregnant\Project 1\Capture day 1\Session 1\femalepreg.ASF
:FULLY-SPECIFIED
:DEGREES
409
root 4.29583 15.4396 26.9993 17.8129 -19.2145 0.818695
lowerback -15.5254 0.225633 3.8161
upperback -5.10077 -0.346781 0.372828
thorax 3.264 -0.205435 -1.8301
lowerneck -18.4269 -3.41334 0.80709
upperneck 17.429 -4.66355 -1.25527
head 8.4056 -2.28561 -1.13508
rclavicle -1.56854e-014 -9.14409e-015
rhumerus -33.3845 -11.5697 -75.6112
rradius 26.8516
rwrist -2.92944
rhand -18.4589 -17.3952
rfingers 7.12502
rthumb 7.82742 -47.2303
lclavicle -1.56854e-014 -9.14409e-015
lhumerus -39.1958 3.87983 72.4829
lradius 34.8304
lwrist 45.0773
lhand -29.3166 -6.66562
lfingers 7.12502
lthumb -2.65743 23.2976
rfemur -44.3316 16.7415 16.1728
rtibia 38.9409
rfoot -7.78086 -13.7648
rtoes -10.1528
lfemur -23.0146 -7.60793 -23.7053
ltibia 46.2284
lfoot -3.92746 1.67731
ltoes -28.4458
410
root 4.26294 15.4407 27.0645 17.7896 -19.1518 0.641343
lowerback -15.4681 0.204127 4.31597
upperback -5.13984 -0.455057 0.550941
thorax 3.1811 -0.262501 -1.94387
lowerneck -18.4178 -3.26648 1.0223
upperneck 17.507 -4.47203 -1.49563
head 8.42136 -2.20627 -1.22812
rclavicle -5.27525e-014 -2.5842e-014
rhumerus -33.3738 -11.945 -75.2964
rradius 26.3986
rwrist -2.99993
rhand -18.6512 -17.6735
rfingers 7.12502
rthumb 7.64178 -47.5154
lclavicle -5.27525e-014 -2.5842e-014
lhumerus -39.6217 4.30168 72.4689
lradius 34.7853
lwrist 45.3671
lhand -28.9724 -6.47536
lfingers 7.12502
lthumb -2.32502 23.4917
rfemur -43.8306 16.7585 16.5474
rtibia 38.8324
rfoot -8.0112 -13.8789
rtoes -10.1077
lfemur -24.1848 -7.64122 -23.4042
ltibia 48.298
lfoot -2.6647 1.03155
ltoes -26.882
411
root 4.2302 15.4412 27.1288 17.7815 -19.1476 0.438447
lowerback -15.4085 0.194004 4.80029
upperback -5.17298 -0.545639 0.741206
thorax 3.1034 -0.310955 -2.03243
lowerneck -18.4435 -3.12841 1.21089
upperneck 17.6119 -4.29025 -1.71308
head 8.45433 -2.1306 -1.31178
rclavicle -5.46409e-014 8.74653e-015
rhumerus -33.3672 -12.1848 -75.0158
rradius 26.0261
rwrist -3.07596
rhand -18.7261 -17.8301
rfingers 7.12502
rthumb 7.56958 -47.6746
lclavicle -5.46409e-014 8.74653e-015
lhumerus -40.0055 4.6574 72.5058
lradius 34.6761
lwrist 45.599
lhand -28.588 -6.30959
lfingers 7.12502
lthumb -1.95378 23.6612
rfemur -43.3415 16.8083 16.9352
rtibia 38.6971
rfoot -8.21762 -13.953
rtoes -10.0743
lfemur -25.3237 -7.63503 -23.0796
ltibia 50.2613
lfoot -1.5503 0.436208
ltoes -25.4584
412
root 4.198 15.4412 27.1916 17.7926 -19.2074 0.220006
lowerback -15.3438 0.200356 5.26283
upperback -5.20402 -0.610338 0.936061
thorax 3.02635 -0.346856 -2.09881
lowerneck -18.4938 -3.00622 1.37584
upperneck 17.7333 -4.12886 -1.90693
head 8.4988 -2.06351 -1.38716
rclavicle -6.48038e-014 4.77083e-015
rhumerus -33.3709 -12.3102 -74.7667
rradius 25.741
rwrist -3.1465
rhand -18.6719 -17.8481
rfingers 7.12502
rthumb 7.62185 -47.6907
lclavicle -6.48038e-014 4.77083e-015
lhumerus -40.3411 4.94001 72.5963
lradius 34.5054
lwrist 45.759
lhand -28.1814 -6.13904
lfingers 7.12502
lthumb -1.56112 23.835
rfemur -42.8781 16.8834 17.3243
rtibia 38.5423
rfoot -8.406 -13.9756
rtoes -10.0478
lfemur -26.4397 -7.58051 -22.7434
ltibia 52.1128
lfoot -0.680993 -0.0972516
ltoes -24.4006
413
root 4.16695 15.4408 27.2537 17.8126 -19.3409 -0.00208527
lowerback -15.2722 0.223939 5.70042
upperback -5.23197 -0.647422 1.13119
thorax 2.95061 -0.369273 -2.14556
lowerneck -18.553 -2.8996 1.51606
upperneck 17.8604 -3.98662 -2.07854
head 8.54811 -2.00479 -1.45381
rclavicle -1.74123e-014 -1.11319e-014
rhumerus -33.3888 -12.3147 -74.5525
rradius 25.5475
rwrist -3.21671
rhand -18.4996 -17.7936
rfingers 7.12502
rthumb 7.78815 -47.6301
lclavicle -1.74123e-014 -1.11319e-014
lhumerus -40.6332 5.15219 72.7438
lradius 34.2693
lwrist 45.8412
lhand -27.776 -5.96834
lfingers 7.12502
lthumb -1.16952 24.0082
rfemur -42.4362 16.9781 17.7019
rtibia 38.373
rfoot -8.58132 -13.9353
rtoes -10.0407
lfemur -27.5228 -7.47362 -22.4175
ltibia 53.8423
lfoot -0.113745 -0.579991
ltoes -23.8617
